<mxfile host="app.diagrams.net" modified="2023-09-18T14:03:59.712Z" agent="Mozilla/5.0 (Macintosh; Intel Mac OS X 10_15_7) AppleWebKit/605.1.15 (KHTML, like Gecko) Version/16.4 Safari/605.1.15" etag="0VmroWrWvkWus1r45aM6" version="21.7.2" type="device">
  <diagram name="Page-1" id="AsP60JgBl1jaJY_T1ypP">
    <mxGraphModel dx="1194" dy="509" grid="1" gridSize="10" guides="1" tooltips="1" connect="1" arrows="1" fold="1" page="1" pageScale="1" pageWidth="827" pageHeight="1169" math="0" shadow="0">
      <root>
        <mxCell id="0" />
        <mxCell id="1" parent="0" />
        <mxCell id="lgUJ_rjVDbTUjNWEhDuI-1" value="" style="whiteSpace=wrap;html=1;aspect=fixed;fillColor=#FFFFFF;strokeColor=#1A1A1A;dashed=1;strokeWidth=2;" vertex="1" parent="1">
          <mxGeometry x="453" y="50" width="310" height="310" as="geometry" />
        </mxCell>
        <mxCell id="lgUJ_rjVDbTUjNWEhDuI-2" value="" style="whiteSpace=wrap;html=1;aspect=fixed;fillColor=#FFFFFF;strokeColor=#1A1A1A;dashed=1;strokeWidth=2;" vertex="1" parent="1">
          <mxGeometry x="13" y="240" width="300" height="300" as="geometry" />
        </mxCell>
        <mxCell id="lgUJ_rjVDbTUjNWEhDuI-3" value="Producer" style="rounded=1;whiteSpace=wrap;html=1;fillColor=#b1ddf0;strokeColor=none;" vertex="1" parent="1">
          <mxGeometry x="180" y="320" width="120" height="60" as="geometry" />
        </mxCell>
        <mxCell id="lgUJ_rjVDbTUjNWEhDuI-4" value="Entity A-1" style="ellipse;whiteSpace=wrap;html=1;fillColor=#99CCFF;strokeColor=#7EA6E0;fontColor=#000000;" vertex="1" parent="1">
          <mxGeometry x="53" y="280" width="120" height="60" as="geometry" />
        </mxCell>
        <mxCell id="lgUJ_rjVDbTUjNWEhDuI-5" value="Entity A-2" style="ellipse;whiteSpace=wrap;html=1;fillColor=#99CCFF;strokeColor=#7EA6E0;fontColor=#000000;" vertex="1" parent="1">
          <mxGeometry x="23" y="320" width="120" height="60" as="geometry" />
        </mxCell>
        <mxCell id="lgUJ_rjVDbTUjNWEhDuI-6" value="" style="endArrow=none;html=1;exitX=0.567;exitY=0.983;exitDx=0;exitDy=0;exitPerimeter=0;entryX=0.5;entryY=0;entryDx=0;entryDy=0;entryPerimeter=0;strokeWidth=2;endFill=0;jumpStyle=none;strokeColor=default;curved=1;" edge="1" parent="1" source="lgUJ_rjVDbTUjNWEhDuI-5">
          <mxGeometry width="50" height="50" relative="1" as="geometry">
            <mxPoint x="333" y="560" as="sourcePoint" />
            <mxPoint x="93" y="450" as="targetPoint" />
            <Array as="points">
              <mxPoint x="103" y="420" />
            </Array>
          </mxGeometry>
        </mxCell>
        <mxCell id="lgUJ_rjVDbTUjNWEhDuI-7" value="" style="endArrow=none;html=1;exitX=1;exitY=1;exitDx=0;exitDy=0;strokeWidth=2;endFill=0;curved=1;" edge="1" parent="1" source="lgUJ_rjVDbTUjNWEhDuI-4">
          <mxGeometry width="50" height="50" relative="1" as="geometry">
            <mxPoint x="101" y="389" as="sourcePoint" />
            <mxPoint x="103" y="450" as="targetPoint" />
            <Array as="points">
              <mxPoint x="163" y="390" />
            </Array>
          </mxGeometry>
        </mxCell>
        <mxCell id="lgUJ_rjVDbTUjNWEhDuI-8" value="" style="endArrow=none;html=1;exitX=0.855;exitY=0;exitDx=0;exitDy=4.35;strokeWidth=2;endFill=0;exitPerimeter=0;curved=1;" edge="1" parent="1" target="lgUJ_rjVDbTUjNWEhDuI-3">
          <mxGeometry width="50" height="50" relative="1" as="geometry">
            <mxPoint x="114.29999999999995" y="454.3499999999999" as="sourcePoint" />
            <mxPoint x="153" y="460" as="targetPoint" />
          </mxGeometry>
        </mxCell>
        <mxCell id="lgUJ_rjVDbTUjNWEhDuI-10" value="Consumer" style="rounded=1;whiteSpace=wrap;html=1;fillColor=#f0a30a;fontColor=#000000;strokeColor=none;" vertex="1" parent="1">
          <mxGeometry x="480" y="80" width="120" height="60" as="geometry" />
        </mxCell>
        <mxCell id="lgUJ_rjVDbTUjNWEhDuI-11" value="" style="endArrow=none;html=1;rounded=0;strokeWidth=2;endFill=0;entryX=0;entryY=0.5;entryDx=0;entryDy=0;exitX=1;exitY=0.5;exitDx=0;exitDy=0;fillColor=#f0a30a;strokeColor=#67AB9F;" edge="1" parent="1" source="lgUJ_rjVDbTUjNWEhDuI-3" target="lgUJ_rjVDbTUjNWEhDuI-12">
          <mxGeometry width="50" height="50" relative="1" as="geometry">
            <mxPoint x="303" y="299.4958620689656" as="sourcePoint" />
            <mxPoint x="333" y="299.51" as="targetPoint" />
          </mxGeometry>
        </mxCell>
        <mxCell id="lgUJ_rjVDbTUjNWEhDuI-12" value="" style="ellipse;whiteSpace=wrap;html=1;aspect=fixed;fillColor=#67AB9F;strokeColor=none;" vertex="1" parent="1">
          <mxGeometry x="333" y="340" width="20" height="20" as="geometry" />
        </mxCell>
        <mxCell id="lgUJ_rjVDbTUjNWEhDuI-13" value="gRPC" style="text;html=1;strokeColor=none;fillColor=none;align=center;verticalAlign=middle;whiteSpace=wrap;rounded=0;" vertex="1" parent="1">
          <mxGeometry x="313" y="360" width="60" height="30" as="geometry" />
        </mxCell>
        <mxCell id="lgUJ_rjVDbTUjNWEhDuI-14" value="" style="endArrow=none;html=1;entryX=0;entryY=0.5;entryDx=0;entryDy=0;exitX=1;exitY=0.5;exitDx=0;exitDy=0;strokeWidth=2;curved=1;strokeColor=#67AB9F;fillColor=#f0a30a;" edge="1" parent="1" source="lgUJ_rjVDbTUjNWEhDuI-12" target="lgUJ_rjVDbTUjNWEhDuI-10">
          <mxGeometry width="50" height="50" relative="1" as="geometry">
            <mxPoint x="393" y="840" as="sourcePoint" />
            <mxPoint x="443" y="790" as="targetPoint" />
            <Array as="points">
              <mxPoint x="413" y="160" />
            </Array>
          </mxGeometry>
        </mxCell>
        <mxCell id="lgUJ_rjVDbTUjNWEhDuI-15" value="Entity A-3" style="ellipse;whiteSpace=wrap;html=1;fillColor=#99CCFF;strokeColor=#7EA6E0;fontColor=#000000;" vertex="1" parent="1">
          <mxGeometry x="16" y="360" width="120" height="60" as="geometry" />
        </mxCell>
        <mxCell id="lgUJ_rjVDbTUjNWEhDuI-17" value="Cloud Service" style="text;html=1;strokeColor=none;fillColor=none;align=left;verticalAlign=middle;whiteSpace=wrap;rounded=0;fontSize=16;" vertex="1" parent="1">
          <mxGeometry x="13" y="210" width="140" height="30" as="geometry" />
        </mxCell>
        <mxCell id="lgUJ_rjVDbTUjNWEhDuI-18" value="Edge Service" style="text;html=1;strokeColor=none;fillColor=none;align=left;verticalAlign=middle;whiteSpace=wrap;rounded=0;fontSize=16;" vertex="1" parent="1">
          <mxGeometry x="453" y="20" width="140" height="30" as="geometry" />
        </mxCell>
        <mxCell id="lgUJ_rjVDbTUjNWEhDuI-19" value="" style="group" vertex="1" connectable="0" parent="1">
          <mxGeometry x="44.5" y="450" width="77" height="60" as="geometry" />
        </mxCell>
        <mxCell id="lgUJ_rjVDbTUjNWEhDuI-20" value="" style="ellipse;whiteSpace=wrap;html=1;fillColor=#15a9ce;strokeColor=#FFFFFF;strokeWidth=2;" vertex="1" parent="lgUJ_rjVDbTUjNWEhDuI-19">
          <mxGeometry y="40" width="77" height="20" as="geometry" />
        </mxCell>
        <mxCell id="lgUJ_rjVDbTUjNWEhDuI-21" value="" style="ellipse;whiteSpace=wrap;html=1;fillColor=#15a9ce;strokeColor=#FFFFFF;strokeWidth=2;" vertex="1" parent="lgUJ_rjVDbTUjNWEhDuI-19">
          <mxGeometry y="32" width="77" height="20" as="geometry" />
        </mxCell>
        <mxCell id="lgUJ_rjVDbTUjNWEhDuI-22" value="" style="ellipse;whiteSpace=wrap;html=1;fillColor=#15a9ce;strokeColor=#FFFFFF;strokeWidth=2;" vertex="1" parent="lgUJ_rjVDbTUjNWEhDuI-19">
          <mxGeometry y="24" width="77" height="20" as="geometry" />
        </mxCell>
        <mxCell id="lgUJ_rjVDbTUjNWEhDuI-23" value="" style="ellipse;whiteSpace=wrap;html=1;fillColor=#15a9ce;strokeColor=#FFFFFF;strokeWidth=2;" vertex="1" parent="lgUJ_rjVDbTUjNWEhDuI-19">
          <mxGeometry y="16" width="77" height="20" as="geometry" />
        </mxCell>
        <mxCell id="lgUJ_rjVDbTUjNWEhDuI-24" value="" style="ellipse;whiteSpace=wrap;html=1;fillColor=#15a9ce;strokeColor=#FFFFFF;strokeWidth=2;" vertex="1" parent="lgUJ_rjVDbTUjNWEhDuI-19">
          <mxGeometry y="8" width="77" height="20" as="geometry" />
        </mxCell>
        <mxCell id="lgUJ_rjVDbTUjNWEhDuI-25" value="" style="ellipse;whiteSpace=wrap;html=1;fillColor=#15a9ce;strokeColor=#FFFFFF;strokeWidth=2;" vertex="1" parent="lgUJ_rjVDbTUjNWEhDuI-19">
          <mxGeometry width="77" height="20" as="geometry" />
        </mxCell>
        <mxCell id="lgUJ_rjVDbTUjNWEhDuI-26" value="event journal" style="text;html=1;strokeColor=none;fillColor=none;align=center;verticalAlign=middle;whiteSpace=wrap;rounded=0;" vertex="1" parent="1">
          <mxGeometry x="35.25" y="510" width="95.5" height="30" as="geometry" />
        </mxCell>
        <mxCell id="lgUJ_rjVDbTUjNWEhDuI-27" value="event journal" style="text;html=1;strokeColor=none;fillColor=none;align=center;verticalAlign=middle;whiteSpace=wrap;rounded=0;" vertex="1" parent="1">
          <mxGeometry x="550.75" y="320" width="95.5" height="30" as="geometry" />
        </mxCell>
        <mxCell id="lgUJ_rjVDbTUjNWEhDuI-28" value="" style="group" vertex="1" connectable="0" parent="1">
          <mxGeometry x="560" y="260" width="77" height="60" as="geometry" />
        </mxCell>
        <mxCell id="lgUJ_rjVDbTUjNWEhDuI-29" value="" style="ellipse;whiteSpace=wrap;html=1;fillColor=#FFD966;strokeColor=#FFFFFF;strokeWidth=2;" vertex="1" parent="lgUJ_rjVDbTUjNWEhDuI-28">
          <mxGeometry y="40" width="77" height="20" as="geometry" />
        </mxCell>
        <mxCell id="lgUJ_rjVDbTUjNWEhDuI-30" value="" style="ellipse;whiteSpace=wrap;html=1;fillColor=#FFD966;strokeColor=#FFFFFF;strokeWidth=2;" vertex="1" parent="lgUJ_rjVDbTUjNWEhDuI-28">
          <mxGeometry y="32" width="77" height="20" as="geometry" />
        </mxCell>
        <mxCell id="lgUJ_rjVDbTUjNWEhDuI-31" value="" style="ellipse;whiteSpace=wrap;html=1;fillColor=#FFD966;strokeColor=#FFFFFF;strokeWidth=2;" vertex="1" parent="lgUJ_rjVDbTUjNWEhDuI-28">
          <mxGeometry y="24" width="77" height="20" as="geometry" />
        </mxCell>
        <mxCell id="lgUJ_rjVDbTUjNWEhDuI-32" value="" style="ellipse;whiteSpace=wrap;html=1;fillColor=#FFD966;strokeColor=#FFFFFF;strokeWidth=2;container=0;" vertex="1" parent="lgUJ_rjVDbTUjNWEhDuI-28">
          <mxGeometry y="16" width="77" height="20" as="geometry" />
        </mxCell>
        <mxCell id="lgUJ_rjVDbTUjNWEhDuI-33" value="" style="ellipse;whiteSpace=wrap;html=1;fillColor=#FFD966;strokeColor=#FFFFFF;strokeWidth=2;" vertex="1" parent="lgUJ_rjVDbTUjNWEhDuI-28">
          <mxGeometry y="8" width="77" height="20" as="geometry" />
        </mxCell>
        <mxCell id="lgUJ_rjVDbTUjNWEhDuI-34" value="" style="ellipse;whiteSpace=wrap;html=1;fillColor=#FFD966;strokeColor=#FFFFFF;strokeWidth=2;" vertex="1" parent="lgUJ_rjVDbTUjNWEhDuI-28">
          <mxGeometry width="77" height="20" as="geometry" />
        </mxCell>
        <mxCell id="lgUJ_rjVDbTUjNWEhDuI-35" value="Consumer" style="rounded=1;whiteSpace=wrap;html=1;fillColor=#f0a30a;fontColor=#000000;strokeColor=none;" vertex="1" parent="1">
          <mxGeometry x="180" y="410" width="120" height="60" as="geometry" />
        </mxCell>
        <mxCell id="lgUJ_rjVDbTUjNWEhDuI-36" value="" style="endArrow=none;html=1;rounded=0;strokeWidth=2;endFill=0;entryX=0;entryY=0.5;entryDx=0;entryDy=0;exitX=1;exitY=0.5;exitDx=0;exitDy=0;fillColor=#f0a30a;strokeColor=#67AB9F;" edge="1" parent="1" target="lgUJ_rjVDbTUjNWEhDuI-37">
          <mxGeometry width="50" height="50" relative="1" as="geometry">
            <mxPoint x="300" y="440" as="sourcePoint" />
            <mxPoint x="333" y="389.51" as="targetPoint" />
          </mxGeometry>
        </mxCell>
        <mxCell id="lgUJ_rjVDbTUjNWEhDuI-37" value="" style="ellipse;whiteSpace=wrap;html=1;aspect=fixed;fillColor=#67AB9F;strokeColor=none;" vertex="1" parent="1">
          <mxGeometry x="333" y="430" width="20" height="20" as="geometry" />
        </mxCell>
        <mxCell id="lgUJ_rjVDbTUjNWEhDuI-38" value="gRPC" style="text;html=1;strokeColor=none;fillColor=none;align=center;verticalAlign=middle;whiteSpace=wrap;rounded=0;" vertex="1" parent="1">
          <mxGeometry x="313" y="450" width="60" height="30" as="geometry" />
        </mxCell>
        <mxCell id="lgUJ_rjVDbTUjNWEhDuI-40" value="Producer" style="rounded=1;whiteSpace=wrap;html=1;fillColor=#b1ddf0;strokeColor=none;" vertex="1" parent="1">
          <mxGeometry x="475" y="170" width="120" height="60" as="geometry" />
        </mxCell>
        <mxCell id="lgUJ_rjVDbTUjNWEhDuI-41" style="rounded=0;orthogonalLoop=1;jettySize=auto;html=1;exitX=0.5;exitY=1;exitDx=0;exitDy=0;endArrow=none;endFill=0;strokeWidth=2;entryX=0;entryY=0;entryDx=0;entryDy=0;" edge="1" parent="1" source="lgUJ_rjVDbTUjNWEhDuI-40" target="lgUJ_rjVDbTUjNWEhDuI-34">
          <mxGeometry relative="1" as="geometry">
            <mxPoint x="603" y="269" as="targetPoint" />
            <mxPoint x="550" y="150" as="sourcePoint" />
          </mxGeometry>
        </mxCell>
        <mxCell id="lgUJ_rjVDbTUjNWEhDuI-42" value="" style="endArrow=none;html=1;exitX=0.408;exitY=0.967;exitDx=0;exitDy=0;strokeWidth=2;endFill=0;curved=1;strokeColor=default;exitPerimeter=0;entryX=0.61;entryY=-0.25;entryDx=0;entryDy=0;entryPerimeter=0;" edge="1" parent="1" target="lgUJ_rjVDbTUjNWEhDuI-34">
          <mxGeometry width="50" height="50" relative="1" as="geometry">
            <mxPoint x="653.96" y="178.01999999999998" as="sourcePoint" />
            <mxPoint x="600" y="280" as="targetPoint" />
            <Array as="points">
              <mxPoint x="620" y="220" />
            </Array>
          </mxGeometry>
        </mxCell>
        <mxCell id="lgUJ_rjVDbTUjNWEhDuI-43" value="" style="endArrow=none;html=1;exitX=1;exitY=0;exitDx=0;exitDy=0;strokeWidth=2;endFill=0;curved=1;strokeColor=default;" edge="1" parent="1">
          <mxGeometry width="50" height="50" relative="1" as="geometry">
            <mxPoint x="707.426406871193" y="128.78679656440352" as="sourcePoint" />
            <mxPoint x="620" y="260" as="targetPoint" />
            <Array as="points">
              <mxPoint x="630" y="222" />
            </Array>
          </mxGeometry>
        </mxCell>
        <mxCell id="lgUJ_rjVDbTUjNWEhDuI-44" value="Entity B-1" style="ellipse;whiteSpace=wrap;html=1;fillColor=#99CCFF;strokeColor=#7EA6E0;fontColor=#000000;" vertex="1" parent="1">
          <mxGeometry x="627" y="80" width="120" height="60" as="geometry" />
        </mxCell>
        <mxCell id="lgUJ_rjVDbTUjNWEhDuI-45" value="Entity B-2" style="ellipse;whiteSpace=wrap;html=1;fillColor=#99CCFF;strokeColor=#7EA6E0;fontColor=#000000;" vertex="1" parent="1">
          <mxGeometry x="620" y="120" width="120" height="60" as="geometry" />
        </mxCell>
        <mxCell id="lgUJ_rjVDbTUjNWEhDuI-46" value="" style="endArrow=none;html=1;entryX=0;entryY=0.5;entryDx=0;entryDy=0;exitX=1;exitY=0;exitDx=0;exitDy=0;strokeWidth=2;curved=1;strokeColor=#67AB9F;fillColor=#f0a30a;" edge="1" parent="1" source="lgUJ_rjVDbTUjNWEhDuI-37" target="lgUJ_rjVDbTUjNWEhDuI-40">
          <mxGeometry width="50" height="50" relative="1" as="geometry">
            <mxPoint x="363" y="360" as="sourcePoint" />
            <mxPoint x="490" y="120" as="targetPoint" />
            <Array as="points">
              <mxPoint x="410" y="210" />
            </Array>
          </mxGeometry>
        </mxCell>
        <mxCell id="lgUJ_rjVDbTUjNWEhDuI-47" value="" style="whiteSpace=wrap;html=1;aspect=fixed;fillColor=#FFFFFF;strokeColor=#1A1A1A;dashed=1;strokeWidth=2;" vertex="1" parent="1">
          <mxGeometry x="460" y="445" width="310" height="310" as="geometry" />
        </mxCell>
        <mxCell id="lgUJ_rjVDbTUjNWEhDuI-48" value="Consumer" style="rounded=1;whiteSpace=wrap;html=1;fillColor=#f0a30a;fontColor=#000000;strokeColor=none;" vertex="1" parent="1">
          <mxGeometry x="487" y="475" width="120" height="60" as="geometry" />
        </mxCell>
        <mxCell id="lgUJ_rjVDbTUjNWEhDuI-49" value="Edge Service" style="text;html=1;strokeColor=none;fillColor=none;align=left;verticalAlign=middle;whiteSpace=wrap;rounded=0;fontSize=16;" vertex="1" parent="1">
          <mxGeometry x="460" y="415" width="140" height="30" as="geometry" />
        </mxCell>
        <mxCell id="lgUJ_rjVDbTUjNWEhDuI-50" value="event journal" style="text;html=1;strokeColor=none;fillColor=none;align=center;verticalAlign=middle;whiteSpace=wrap;rounded=0;" vertex="1" parent="1">
          <mxGeometry x="557.75" y="715" width="95.5" height="30" as="geometry" />
        </mxCell>
        <mxCell id="lgUJ_rjVDbTUjNWEhDuI-51" value="" style="group" vertex="1" connectable="0" parent="1">
          <mxGeometry x="567" y="655" width="77" height="60" as="geometry" />
        </mxCell>
        <mxCell id="lgUJ_rjVDbTUjNWEhDuI-52" value="" style="ellipse;whiteSpace=wrap;html=1;fillColor=#FFD966;strokeColor=#FFFFFF;strokeWidth=2;" vertex="1" parent="lgUJ_rjVDbTUjNWEhDuI-51">
          <mxGeometry y="40" width="77" height="20" as="geometry" />
        </mxCell>
        <mxCell id="lgUJ_rjVDbTUjNWEhDuI-53" value="" style="ellipse;whiteSpace=wrap;html=1;fillColor=#FFD966;strokeColor=#FFFFFF;strokeWidth=2;" vertex="1" parent="lgUJ_rjVDbTUjNWEhDuI-51">
          <mxGeometry y="32" width="77" height="20" as="geometry" />
        </mxCell>
        <mxCell id="lgUJ_rjVDbTUjNWEhDuI-54" value="" style="ellipse;whiteSpace=wrap;html=1;fillColor=#FFD966;strokeColor=#FFFFFF;strokeWidth=2;" vertex="1" parent="lgUJ_rjVDbTUjNWEhDuI-51">
          <mxGeometry y="24" width="77" height="20" as="geometry" />
        </mxCell>
        <mxCell id="lgUJ_rjVDbTUjNWEhDuI-55" value="" style="ellipse;whiteSpace=wrap;html=1;fillColor=#FFD966;strokeColor=#FFFFFF;strokeWidth=2;container=0;" vertex="1" parent="lgUJ_rjVDbTUjNWEhDuI-51">
          <mxGeometry y="16" width="77" height="20" as="geometry" />
        </mxCell>
        <mxCell id="lgUJ_rjVDbTUjNWEhDuI-56" value="" style="ellipse;whiteSpace=wrap;html=1;fillColor=#FFD966;strokeColor=#FFFFFF;strokeWidth=2;" vertex="1" parent="lgUJ_rjVDbTUjNWEhDuI-51">
          <mxGeometry y="8" width="77" height="20" as="geometry" />
        </mxCell>
        <mxCell id="lgUJ_rjVDbTUjNWEhDuI-57" value="" style="ellipse;whiteSpace=wrap;html=1;fillColor=#FFD966;strokeColor=#FFFFFF;strokeWidth=2;" vertex="1" parent="lgUJ_rjVDbTUjNWEhDuI-51">
          <mxGeometry width="77" height="20" as="geometry" />
        </mxCell>
        <mxCell id="lgUJ_rjVDbTUjNWEhDuI-58" value="Producer" style="rounded=1;whiteSpace=wrap;html=1;fillColor=#b1ddf0;strokeColor=none;" vertex="1" parent="1">
          <mxGeometry x="482" y="565" width="120" height="60" as="geometry" />
        </mxCell>
        <mxCell id="lgUJ_rjVDbTUjNWEhDuI-59" style="rounded=0;orthogonalLoop=1;jettySize=auto;html=1;exitX=0.5;exitY=1;exitDx=0;exitDy=0;endArrow=none;endFill=0;strokeWidth=2;entryX=0;entryY=0;entryDx=0;entryDy=0;" edge="1" parent="1" source="lgUJ_rjVDbTUjNWEhDuI-58" target="lgUJ_rjVDbTUjNWEhDuI-57">
          <mxGeometry relative="1" as="geometry">
            <mxPoint x="610" y="664" as="targetPoint" />
            <mxPoint x="557" y="545" as="sourcePoint" />
          </mxGeometry>
        </mxCell>
        <mxCell id="lgUJ_rjVDbTUjNWEhDuI-60" value="" style="endArrow=none;html=1;exitX=0.408;exitY=0.967;exitDx=0;exitDy=0;strokeWidth=2;endFill=0;curved=1;strokeColor=default;exitPerimeter=0;entryX=0.61;entryY=-0.25;entryDx=0;entryDy=0;entryPerimeter=0;" edge="1" parent="1" target="lgUJ_rjVDbTUjNWEhDuI-57">
          <mxGeometry width="50" height="50" relative="1" as="geometry">
            <mxPoint x="660.96" y="573.02" as="sourcePoint" />
            <mxPoint x="607" y="675" as="targetPoint" />
            <Array as="points">
              <mxPoint x="627" y="615" />
            </Array>
          </mxGeometry>
        </mxCell>
        <mxCell id="lgUJ_rjVDbTUjNWEhDuI-61" value="" style="endArrow=none;html=1;exitX=1;exitY=0;exitDx=0;exitDy=0;strokeWidth=2;endFill=0;curved=1;strokeColor=default;" edge="1" parent="1">
          <mxGeometry width="50" height="50" relative="1" as="geometry">
            <mxPoint x="714.426406871193" y="523.7867965644035" as="sourcePoint" />
            <mxPoint x="627" y="655" as="targetPoint" />
            <Array as="points">
              <mxPoint x="637" y="617" />
            </Array>
          </mxGeometry>
        </mxCell>
        <mxCell id="lgUJ_rjVDbTUjNWEhDuI-62" value="Entity B-3" style="ellipse;whiteSpace=wrap;html=1;fillColor=#99CCFF;strokeColor=#7EA6E0;fontColor=#000000;" vertex="1" parent="1">
          <mxGeometry x="634" y="475" width="120" height="60" as="geometry" />
        </mxCell>
        <mxCell id="lgUJ_rjVDbTUjNWEhDuI-63" value="Entity B-4" style="ellipse;whiteSpace=wrap;html=1;fillColor=#99CCFF;strokeColor=#7EA6E0;fontColor=#000000;" vertex="1" parent="1">
          <mxGeometry x="627" y="515" width="120" height="60" as="geometry" />
        </mxCell>
        <mxCell id="lgUJ_rjVDbTUjNWEhDuI-64" value="" style="endArrow=none;html=1;entryX=0;entryY=0.5;entryDx=0;entryDy=0;exitX=1;exitY=1;exitDx=0;exitDy=0;strokeWidth=2;curved=1;strokeColor=#67AB9F;fillColor=#f0a30a;" edge="1" parent="1" source="lgUJ_rjVDbTUjNWEhDuI-37" target="lgUJ_rjVDbTUjNWEhDuI-58">
          <mxGeometry width="50" height="50" relative="1" as="geometry">
            <mxPoint x="360" y="443" as="sourcePoint" />
            <mxPoint x="485" y="210" as="targetPoint" />
            <Array as="points">
              <mxPoint x="420" y="590" />
            </Array>
          </mxGeometry>
        </mxCell>
        <mxCell id="lgUJ_rjVDbTUjNWEhDuI-65" value="" style="endArrow=none;html=1;entryX=0;entryY=0.5;entryDx=0;entryDy=0;exitX=1;exitY=0.5;exitDx=0;exitDy=0;strokeWidth=2;curved=1;strokeColor=#67AB9F;fillColor=#f0a30a;" edge="1" parent="1" source="lgUJ_rjVDbTUjNWEhDuI-12" target="lgUJ_rjVDbTUjNWEhDuI-48">
          <mxGeometry width="50" height="50" relative="1" as="geometry">
            <mxPoint x="360" y="457" as="sourcePoint" />
            <mxPoint x="492" y="605" as="targetPoint" />
            <Array as="points">
              <mxPoint x="430" y="510" />
            </Array>
          </mxGeometry>
        </mxCell>
      </root>
    </mxGraphModel>
  </diagram>
</mxfile>
